<?xml version="1.0" standalone="no"?>
<!DOCTYPE svg PUBLIC "-//W3C//DTD SVG 20010904//EN"
 "http://www.w3.org/TR/2001/REC-SVG-20010904/DTD/svg10.dtd">
<svg version="1.0" xmlns="http://www.w3.org/2000/svg"
 width="1080.000000pt" height="1080.000000pt" viewBox="0 0 1080.000000 1080.000000"
 preserveAspectRatio="xMidYMid meet">
<metadata>
Created by potrace 1.16, written by Peter Selinger 2001-2019
</metadata>
<g transform="translate(0.000000,1080.000000) scale(0.100000,-0.100000)"
fill="#000000" stroke="none">
<path d="M4240 10778 c0 -11 6 -46 14 -77 8 -31 19 -96 26 -146 6 -49 20 -130
31 -180 11 -49 27 -124 34 -165 7 -41 24 -124 37 -185 l23 -110 3 60 c2 33 -3
82 -12 110 -8 28 -17 83 -21 123 -7 79 -24 170 -56 296 -11 43 -17 81 -14 84
7 7 29 -22 61 -83 l26 -50 -7 60 c-7 59 -34 124 -83 198 -21 32 -24 42 -14 58
16 26 16 26 -18 27 -24 0 -30 -4 -30 -20z"/>
<path d="M4416 10768 c4 -18 9 -64 10 -103 1 -38 5 -98 9 -132 9 -72 2 -105
-26 -132 l-21 -20 21 -69 c12 -40 21 -98 21 -134 0 -36 7 -86 16 -111 12 -36
14 -54 5 -78 -7 -20 -7 -46 0 -82 7 -37 6 -64 -2 -95 -15 -54 -5 -64 26 -27
28 35 31 77 10 130 -10 22 -15 58 -13 93 l3 56 33 -95 c17 -52 32 -103 32
-114 0 -27 -34 -115 -48 -124 -7 -4 -1 -29 20 -75 22 -51 27 -71 18 -76 -9 -5
-10 -20 -6 -44 8 -43 22 -39 43 12 12 30 13 45 2 99 -11 53 -10 75 1 126 18
82 17 90 -13 174 -36 97 -46 234 -23 321 10 38 17 104 17 165 1 99 1 101 17
72 18 -35 27 -142 41 -491 6 -132 14 -252 20 -266 5 -14 8 -28 5 -31 -11 -11
-20 -64 -14 -87 l6 -25 16 30 c14 27 15 85 7 545 -4 283 -10 529 -13 545 -2
17 -4 40 -5 53 -1 12 -7 22 -16 22 -11 0 -15 -11 -15 -40 0 -22 -4 -40 -10
-40 -5 0 -10 18 -10 40 0 40 0 40 -39 40 -33 0 -40 -4 -44 -22 l-4 -23 -2 23
c-1 19 -7 22 -42 22 l-41 0 8 -32z"/>
<path d="M4676 10368 c3 -238 7 -442 10 -453 3 -11 9 -78 14 -149 l8 -129 52
-74 c29 -41 49 -77 46 -81 -9 -8 -105 98 -120 133 l-13 30 -22 -69 c-11 -37
-21 -86 -21 -108 0 -23 -4 -37 -10 -33 -6 4 -10 -8 -10 -29 0 -37 -8 -66 -19
-66 -3 0 -7 28 -9 63 -2 44 1 58 8 47 8 -12 10 -10 10 10 0 20 -5 25 -25 25
-28 0 -30 -11 -15 -85 13 -68 -3 -114 -53 -151 -63 -46 -125 -75 -192 -90
l-60 -13 40 -7 c22 -4 65 -9 96 -10 42 -3 55 -7 51 -17 -3 -9 -8 -10 -15 -3
-6 6 -17 11 -24 11 -10 0 -10 -5 2 -24 15 -23 15 -25 -5 -36 -16 -9 -31 -8
-63 2 -29 10 -50 11 -67 5 -20 -7 -41 -3 -91 17 -36 14 -71 26 -78 26 -25 0
-132 -63 -120 -71 15 -9 3 -28 -25 -39 -18 -8 -17 -9 12 -9 57 -1 112 -43 112
-86 0 -19 -2 -18 -19 4 l-19 24 -6 -21 c-4 -12 -12 -22 -18 -22 -10 0 -68 38
-78 51 -3 3 -28 9 -56 13 -39 5 -65 1 -118 -17 -37 -13 -67 -28 -66 -33 4 -35
14 -54 31 -54 26 0 24 7 -8 35 l-28 24 26 1 c15 0 46 -7 69 -15 23 -8 59 -15
79 -15 27 0 32 -3 21 -10 -8 -5 -37 -10 -65 -10 -50 0 -50 -1 -103 -68 -29
-37 -70 -87 -91 -111 l-39 -43 -11 35 c-12 35 -37 65 -46 55 -3 -3 8 -30 23
-62 l29 -56 -38 -35 c-37 -33 -110 -62 -129 -50 -6 3 -10 2 -10 -3 0 -4 -18
-18 -40 -31 -22 -12 -40 -26 -40 -30 0 -4 -14 -21 -30 -38 -31 -31 -31 -32 -8
-35 28 -4 88 -89 88 -125 0 -20 -4 -24 -17 -18 -31 13 -123 18 -123 7 0 -6
-16 -4 -40 5 -41 17 -65 9 -65 -19 0 -7 -31 -19 -68 -28 -38 -9 -87 -30 -112
-48 -42 -30 -129 -70 -227 -106 -26 -10 -63 -28 -83 -42 -42 -28 -49 -30 -41
-9 7 20 4 19 -56 -11 -49 -25 -102 -62 -155 -108 l-23 -19 22 -16 c17 -12 55
-15 178 -16 336 -3 358 -4 330 -20 -14 -8 -37 -14 -52 -15 -15 0 -77 -14 -138
-30 -61 -17 -125 -30 -144 -30 -36 0 -94 -34 -131 -78 -12 -15 -48 -40 -79
-55 -31 -16 -56 -29 -56 -30 0 -1 49 -2 110 -1 125 1 129 -6 31 -52 -138 -64
-184 -91 -203 -117 -11 -15 -18 -30 -15 -33 2 -3 39 11 81 30 88 40 182 66
234 65 36 0 34 -1 -37 -35 -41 -19 -115 -64 -165 -101 -50 -37 -93 -68 -95
-70 -2 -2 -2 -5 1 -8 3 -3 41 13 84 36 43 22 95 49 115 60 20 10 56 21 80 25
l44 7 -42 -32 c-24 -17 -43 -33 -43 -35 0 -3 26 6 58 19 69 28 152 42 152 26
0 -6 -8 -11 -18 -11 -10 0 -40 -11 -68 -24 -148 -73 -217 -94 -197 -63 4 6
-11 -2 -32 -19 -22 -17 -49 -36 -60 -42 -32 -18 5 -15 40 4 16 8 52 20 80 26
27 5 60 17 73 25 22 13 21 11 -7 -39 -17 -29 -41 -64 -54 -78 -13 -14 -41 -50
-61 -80 -20 -30 -81 -97 -134 -148 -53 -52 -92 -96 -86 -98 6 -3 37 9 68 26
62 32 111 38 140 17 16 -11 15 -15 -14 -42 -41 -39 -38 -47 11 -24 65 32 66
17 3 -36 -86 -72 -174 -157 -174 -167 0 -20 33 -4 87 43 53 47 147 109 166
109 4 0 -4 -17 -18 -37 -13 -21 -31 -51 -39 -68 -7 -16 -34 -57 -59 -90 -25
-33 -43 -62 -41 -65 3 -2 8 0 12 6 14 22 142 93 142 79 0 -2 -20 -27 -45 -55
-25 -28 -45 -56 -45 -62 0 -6 -11 -26 -25 -44 l-26 -34 28 11 c15 6 38 20 51
31 l22 21 0 -22 c0 -12 -11 -44 -25 -71 -14 -27 -25 -60 -25 -73 0 -25 22 -62
37 -62 13 0 35 -24 62 -68 18 -29 22 -48 18 -78 -4 -31 -1 -41 13 -49 15 -8
16 -15 7 -52 -5 -24 -20 -69 -34 -102 -24 -60 -23 -87 3 -52 21 29 27 14 25
-59 -1 -54 3 -73 25 -110 24 -41 25 -51 19 -113 -3 -37 -8 -75 -11 -85 -6 -21
42 -90 57 -82 5 4 9 2 9 -3 0 -5 48 -35 108 -67 59 -32 118 -66 131 -76 28
-23 33 -20 92 59 65 86 131 152 153 152 11 0 32 11 46 25 36 34 120 66 142 54
10 -6 27 -5 43 1 69 26 141 10 315 -68 l125 -57 165 4 c480 13 1191 -7 1400
-38 30 -5 59 -7 65 -4 7 2 11 28 11 61 -1 31 3 74 7 95 8 36 7 38 -26 52 -66
27 -740 75 -1466 105 -140 5 -262 12 -270 15 -20 6 -205 7 -286 1 -146 -10
-308 -71 -377 -143 -38 -39 -68 -97 -68 -131 0 -20 -69 -152 -80 -152 -3 0
-15 7 -26 17 -21 16 -20 16 19 84 36 63 40 78 53 191 16 145 26 173 129 333
41 65 75 122 75 127 0 11 -47 -44 -83 -98 -15 -23 -39 -52 -54 -65 l-25 -24 6
45 c4 25 14 63 23 85 22 52 125 207 177 266 23 25 54 62 69 82 28 37 74 74 82
65 2 -2 -11 -26 -30 -53 -19 -27 -35 -53 -35 -59 1 -13 49 42 96 109 19 28 54
79 78 114 25 35 64 84 88 110 91 97 170 191 160 191 -6 0 -22 -4 -36 -10 -51
-19 -16 15 71 70 73 46 248 140 262 140 11 0 -39 -45 -92 -82 -71 -51 -125
-104 -133 -133 -7 -23 -71 -102 -154 -190 -61 -64 -129 -191 -151 -278 -14
-58 -9 -68 12 -24 56 116 127 248 151 282 53 74 279 304 351 358 128 96 130
88 9 -31 -52 -51 -118 -131 -160 -194 -40 -59 -77 -110 -82 -113 -17 -10 -11
24 11 66 11 22 19 45 16 52 -5 15 -76 -80 -84 -112 -7 -33 -44 -98 -102 -181
-63 -91 -181 -291 -181 -307 0 -7 -5 -13 -11 -13 -6 0 -9 7 -6 15 4 8 2 17 -3
20 -12 8 -12 6 -15 -75 -1 -36 -10 -87 -19 -113 -9 -26 -16 -53 -16 -60 0 -32
102 167 120 233 17 64 72 161 154 270 82 110 75 101 162 205 36 44 76 96 89
115 20 32 120 128 250 242 27 23 59 52 71 64 24 23 42 96 25 102 -6 2 1 21 16
43 30 45 42 46 19 0 -9 -16 -16 -53 -16 -80 0 -70 -14 -94 -84 -142 -76 -52
-70 -48 -65 -54 9 -8 110 35 145 62 19 14 34 21 34 16 0 -18 -56 -62 -125 -98
-38 -21 -90 -54 -115 -75 -25 -20 -59 -44 -76 -53 -33 -17 -114 -102 -114
-120 0 -5 22 11 49 36 26 25 66 54 88 66 23 11 58 37 79 57 71 67 90 70 32 4
-121 -137 -164 -201 -198 -300 -18 -52 -36 -99 -40 -105 -4 -5 -11 -26 -15
-45 -4 -19 -11 -41 -16 -50 -21 -41 -48 -180 -47 -245 1 -30 3 -38 5 -20 8 59
55 261 74 318 50 149 140 306 236 413 34 38 70 79 80 91 21 27 216 183 221
178 9 -9 -25 -49 -111 -128 -92 -84 -133 -140 -186 -250 -42 -87 -15 -60 72
71 55 82 103 143 134 167 62 50 66 54 141 152 37 48 71 106 82 139 11 31 25
63 31 70 6 7 19 34 30 61 l19 48 -6 -49 c-4 -28 -15 -68 -24 -90 -21 -49 -33
-106 -22 -106 11 0 67 121 88 190 9 30 42 103 71 162 56 111 101 162 153 175
14 3 36 12 49 20 13 9 35 13 51 10 15 -3 55 1 89 8 124 29 277 -3 398 -85 41
-28 45 -29 40 -11 -9 38 14 22 103 -66 48 -49 111 -111 141 -138 30 -28 64
-71 76 -95 17 -34 23 -40 23 -22 0 36 -23 82 -77 152 -28 36 -58 81 -68 100
-10 19 -33 55 -52 79 -46 61 -95 164 -91 191 3 20 7 16 35 -27 18 -27 41 -70
52 -95 14 -33 32 -53 71 -78 29 -19 63 -45 76 -59 27 -29 74 -116 74 -138 0
-8 60 -76 133 -151 133 -138 144 -154 182 -272 28 -85 55 -139 55 -113 0 12
-6 42 -14 65 -8 24 -20 63 -26 88 -6 25 -25 72 -42 104 -29 59 -49 152 -69
321 -5 44 -13 102 -18 130 -5 27 -7 52 -5 55 3 2 20 -12 39 -30 25 -26 39 -54
53 -108 11 -41 25 -79 31 -85 8 -8 8 -1 1 24 -6 18 -10 48 -10 65 0 16 -7 39
-15 50 -17 22 -20 38 -5 29 6 -4 59 -15 118 -25 163 -29 235 -53 309 -102 38
-24 89 -58 115 -74 179 -112 208 -142 217 -226 4 -35 13 -73 20 -86 7 -13 10
-30 7 -38 -15 -39 167 -305 191 -280 3 2 -5 24 -16 49 -12 25 -21 50 -21 54 0
4 -38 75 -84 158 -84 148 -97 188 -49 143 18 -16 27 -19 30 -10 6 16 59 -49
84 -103 10 -22 31 -76 48 -120 61 -167 60 -164 60 -131 l1 30 26 -35 c14 -19
43 -70 65 -114 51 -106 88 -166 89 -141 0 16 2 17 17 5 9 -8 29 -32 45 -53 15
-21 28 -34 28 -27 0 17 -21 56 -65 121 -44 65 -76 136 -94 205 -15 60 -43 125
-53 125 -5 0 -8 7 -8 15 0 8 -14 37 -30 64 -35 56 -111 241 -100 241 15 0 39
-37 76 -115 20 -44 52 -103 70 -132 45 -71 84 -149 84 -168 0 -10 5 -13 11 -9
18 11 3 110 -24 157 -70 121 -109 204 -131 279 -13 46 -28 92 -31 103 -7 17
-4 16 17 -5 14 -14 24 -29 24 -35 -1 -5 16 -46 38 -90 21 -44 47 -98 57 -120
10 -22 31 -59 47 -82 45 -68 244 -268 286 -288 37 -18 59 -42 112 -130 l25
-40 -6 40 c-4 22 -13 59 -21 83 -16 49 -18 92 -5 92 5 0 13 -10 17 -22 3 -13
30 -54 59 -93 74 -98 96 -154 97 -240 0 -38 -7 -101 -16 -138 -9 -38 -16 -80
-15 -95 l0 -27 11 25 c26 63 48 165 48 221 0 53 2 60 15 49 13 -11 13 -7 1 31
-8 24 -25 71 -39 105 -13 34 -21 67 -17 75 12 24 -67 287 -116 388 -43 88 -78
191 -68 200 6 6 6 6 48 -91 28 -64 58 -110 118 -180 43 -51 95 -123 114 -160
40 -74 74 -114 74 -84 0 39 -109 206 -202 311 -35 38 -64 93 -55 102 9 8 115
-88 135 -122 12 -19 26 -35 31 -35 34 0 200 -313 280 -530 23 -63 28 -53 7 12
-8 24 -18 61 -22 83 -4 22 -15 58 -24 80 -32 75 -58 160 -64 208 -3 26 -12 60
-20 75 -7 15 -17 37 -21 50 -7 23 -6 23 45 -6 60 -35 96 -89 125 -192 41 -149
114 -368 178 -540 20 -52 45 -126 56 -165 18 -63 71 -148 84 -135 3 3 11 33
18 68 12 58 12 66 -6 99 -11 20 -38 57 -61 82 -46 52 -69 90 -59 99 3 4 9 1
13 -5 12 -18 84 -63 101 -63 9 0 36 -20 60 -44 38 -39 44 -51 48 -98 5 -50 4
-52 -11 -33 -8 11 -16 27 -16 36 0 9 -8 27 -18 39 -17 20 -17 17 -14 -97 3
-84 8 -122 18 -133 12 -12 14 -12 14 3 0 24 37 40 75 33 52 -10 59 -25 45
-100 -17 -91 -7 -103 19 -25 14 43 33 77 56 99 l35 34 128 7 c154 8 210 21
217 52 3 12 12 49 19 82 25 108 99 265 125 265 5 0 14 14 21 31 14 33 30 24
30 -17 0 -12 7 -34 15 -50 21 -41 27 -14 22 93 -12 221 -28 338 -57 424 -17
48 -33 108 -36 135 -4 27 -17 72 -29 99 -117 259 -109 278 23 55 26 -44 92
-99 133 -110 39 -11 30 1 -47 61 -38 30 -65 62 -85 101 -36 70 -37 89 -4 58
30 -28 31 -22 5 30 -11 22 -20 47 -20 55 0 9 -12 50 -26 92 -14 41 -23 77 -21
80 7 6 87 -48 107 -72 7 -9 27 -25 43 -37 l29 -21 -11 21 c-6 12 -33 38 -59
57 -28 22 -56 55 -69 83 -13 25 -23 48 -23 50 0 3 19 -16 41 -42 23 -26 44
-45 46 -42 3 2 -5 34 -18 70 -12 37 -19 69 -15 73 3 3 6 -2 6 -11 0 -33 258
-272 275 -255 2 3 -12 22 -31 44 -32 38 -134 230 -134 254 0 22 20 10 46 -28
24 -38 51 -57 62 -46 3 2 -15 26 -39 52 -25 27 -56 61 -69 77 -14 16 -54 61
-90 99 -80 85 -81 88 -114 167 -15 36 -30 72 -34 80 -3 8 16 -4 43 -28 39 -34
50 -40 57 -28 13 23 1 40 -78 111 -41 36 -74 75 -74 84 0 10 -24 39 -53 64
-47 40 -58 57 -86 132 -18 47 -37 83 -42 79 -6 -4 -6 -11 2 -20 19 -23 -6 -16
-44 14 -76 58 -186 123 -239 141 -80 27 -168 71 -168 83 0 6 8 7 18 3 9 -4 42
-10 72 -15 30 -4 82 -20 115 -36 33 -15 73 -33 88 -40 l28 -13 -20 28 c-26 36
-61 125 -61 155 0 18 -7 25 -32 30 -63 12 31 46 129 46 69 0 78 -10 86 -95 10
-102 30 -220 40 -233 21 -27 24 6 11 108 -7 58 -16 131 -19 163 -9 82 -27 97
-113 97 -37 0 -99 -7 -137 -15 -117 -25 -152 -21 -230 26 -38 23 -95 53 -128
66 -32 13 -78 36 -100 50 -40 25 -80 63 -74 69 2 2 27 -3 56 -11 57 -15 75
-12 106 16 12 10 39 25 60 33 l40 15 -45 0 c-25 0 -54 -6 -64 -14 -43 -33
-192 -4 -319 62 -59 30 -54 29 -122 32 l-50 3 30 13 c17 8 46 14 65 15 20 0
40 4 45 9 16 14 98 31 110 22 5 -4 44 -16 86 -25 119 -28 119 -38 -1 -32 -101
5 -104 4 -70 -10 39 -17 77 -20 142 -9 24 4 66 8 94 9 46 1 84 17 84 35 0 3
-23 4 -52 2 -29 -2 -84 4 -123 13 -38 9 -87 18 -107 21 -87 13 -34 23 164 29
220 8 292 18 208 30 -121 17 -239 10 -457 -29 -76 -13 -104 -14 -155 -5 -34 7
-71 16 -81 22 -11 5 -59 14 -108 18 -61 6 -101 15 -125 29 -34 20 -111 30
-100 12 3 -4 23 -11 43 -15 21 -3 50 -12 65 -20 14 -8 50 -17 80 -21 74 -10
160 -33 172 -46 8 -8 -10 -10 -69 -6 -58 3 -113 16 -199 45 -65 22 -122 46
-126 51 -3 6 -31 12 -62 12 -44 1 -66 -4 -102 -25 -25 -14 -66 -38 -91 -52
-27 -16 -55 -24 -72 -22 l-28 4 25 11 c14 6 63 35 110 64 l85 54 132 3 c107 3
137 0 163 -13 20 -10 64 -18 114 -21 45 -2 98 -10 117 -17 77 -32 137 -40 186
-26 l46 14 -84 6 c-46 4 -111 16 -144 27 -33 11 -94 28 -135 37 -90 21 -101
29 -61 43 17 6 31 14 31 18 0 8 -55 2 -205 -20 -176 -27 -201 -17 -65 24 41
12 100 31 130 40 117 38 172 34 369 -30 52 -16 101 -30 110 -30 36 0 -19 33
-103 61 -155 52 -237 60 -447 43 -182 -14 -251 -28 -314 -66 -30 -17 -36 -17
-86 -4 -30 8 -47 16 -39 19 8 3 38 13 65 22 28 9 93 27 145 40 136 33 250 74
290 103 46 34 266 249 293 287 20 28 20 29 2 15 -11 -8 -77 -68 -146 -133 -70
-65 -142 -129 -160 -141 -44 -29 -132 -66 -157 -66 -11 0 -39 -7 -63 -16 -25
-9 -79 -16 -124 -16 -44 -1 -97 -7 -119 -15 -21 -7 -41 -13 -44 -13 -11 0 93
101 138 135 25 18 68 45 95 60 55 31 185 126 205 150 8 9 30 23 49 32 31 14
33 17 14 20 -24 5 -92 -27 -113 -52 -34 -41 -206 -137 -395 -220 -32 -14 -83
-44 -112 -66 -33 -25 -53 -34 -53 -26 0 13 75 103 125 150 40 38 152 112 215
143 63 31 130 88 118 100 -3 3 -23 -6 -45 -19 -21 -13 -63 -37 -93 -52 -30
-15 -80 -44 -110 -65 -98 -66 -113 -61 -40 15 45 47 86 77 133 100 120 58 134
85 25 47 -78 -27 -93 -41 -338 -299 -43 -45 -89 -84 -107 -91 -18 -6 -33 -9
-33 -6 0 3 30 36 66 75 36 39 63 73 59 77 -3 4 -44 -33 -91 -81 -47 -48 -87
-87 -89 -87 -3 0 -5 8 -5 18 0 28 118 165 205 237 43 36 93 82 109 102 46 56
140 119 211 143 36 12 68 26 72 32 4 8 0 9 -11 5 -38 -15 -96 -20 -96 -8 0 6
4 11 9 11 10 0 143 121 138 126 -8 8 -85 -21 -124 -47 -23 -16 -85 -51 -139
-79 -83 -43 -93 -50 -65 -50 22 0 30 -4 25 -12 -9 -15 9 -4 59 35 21 16 41 27
44 23 10 -10 -159 -176 -252 -246 -50 -37 -122 -104 -160 -148 -109 -125 -111
-106 -7 53 76 115 95 140 164 213 27 28 45 52 39 52 -5 0 19 60 54 133 68 141
90 204 62 177 -8 -8 -30 -44 -47 -80 -89 -181 -110 -217 -165 -283 -87 -104
-161 -177 -198 -192 -18 -7 -40 -23 -50 -35 -10 -12 -21 -20 -23 -17 -7 6 44
107 54 107 4 0 29 19 55 43 43 37 50 51 71 125 13 45 20 82 16 82 -12 0 -39
-57 -46 -99 -9 -52 -39 -96 -78 -115 -48 -22 -53 -21 -60 19 -10 51 17 89 134
190 87 75 130 130 130 164 0 6 18 55 39 108 21 54 42 118 45 143 6 42 6 44 -9
26 -8 -11 -15 -24 -15 -29 0 -5 -6 -23 -14 -40 -8 -18 -29 -70 -46 -117 -54
-145 -62 -159 -106 -198 -115 -101 -229 -176 -302 -199 -29 -9 -59 -24 -66
-32 -12 -14 -55 -88 -93 -162 -7 -15 -21 -33 -30 -40 -14 -12 -15 -10 -9 21 4
19 14 52 23 73 12 28 13 41 5 49 -17 17 30 100 84 146 27 22 71 51 98 64 28
13 67 32 86 41 l35 18 -44 -6 c-25 -3 -61 -13 -80 -22 -49 -22 -166 -109 -192
-141 -11 -15 -24 -27 -28 -27 -4 0 -27 -22 -51 -50 -116 -136 -143 -165 -147
-161 -10 10 29 77 84 141 78 93 132 179 120 191 -9 9 -51 -33 -86 -85 -48 -70
-105 -123 -126 -115 -17 7 -20 24 -5 24 11 0 110 148 110 164 0 18 -50 -37
-91 -100 -22 -34 -47 -65 -54 -68 -8 -3 -37 -37 -66 -76 -28 -39 -54 -69 -56
-66 -9 9 25 95 51 128 13 18 29 46 35 61 10 25 7 32 -29 70 -29 31 -40 37 -40
24 0 -9 5 -26 12 -37 10 -15 8 -29 -11 -77 -27 -67 -87 -180 -109 -205 -35
-41 -91 -5 -132 82 l-20 45 1 -80 c0 -44 0 -86 0 -92 -2 -26 -42 -12 -92 33
-28 25 -53 43 -56 41 -2 -3 12 -34 32 -69 19 -36 35 -74 35 -86 0 -27 -37 -62
-65 -62 -31 0 -38 11 -17 26 15 12 13 13 -21 14 -31 0 -40 5 -57 33 -24 38
-25 44 -45 267 -22 240 -43 443 -60 580 -7 63 -17 144 -20 180 -3 36 -11 102
-17 148 l-11 82 -109 0 -108 0 -1 -37 c-1 -21 -4 -67 -7 -103 -14 -160 2
-1120 19 -1152 26 -49 31 -14 25 195 -4 116 -7 343 -9 502 l-2 290 33 50 c49
76 71 126 72 165 1 29 3 31 10 15 16 -37 10 -96 -15 -158 -31 -80 -55 -172
-55 -216 0 -19 7 -72 16 -119 12 -66 14 -120 9 -251 -6 -174 -6 -483 1 -490 2
-2 11 2 20 10 13 10 15 25 10 74 -9 89 -10 247 -2 273 4 13 15 22 27 22 20 0
26 -15 9 -25 -11 -7 -14 -255 -3 -294 6 -22 7 -21 18 17 9 28 10 65 4 119 -12
117 -11 125 20 161 30 33 51 29 31 -7 -5 -11 -10 -75 -10 -143 0 -68 -6 -145
-13 -173 -11 -43 -20 -55 -62 -83 -40 -27 -57 -33 -83 -28 -74 12 -192 133
-220 226 -16 55 -25 162 -27 320 0 80 -5 301 -10 493 -8 324 -9 347 -26 347
-17 0 -18 -21 -13 -432z m385 44 c-1 -33 7 -90 20 -137 43 -162 43 -330 0
-377 -15 -16 -16 -7 -13 106 3 104 0 141 -23 245 -26 119 -26 149 -3 210 13
37 22 17 19 -47z m1371 -1579 c63 -66 121 -190 153 -333 30 -127 28 -178 -5
-232 l-21 -33 8 50 c15 94 7 174 -26 268 -49 137 -98 236 -136 278 -19 22 -35
41 -35 44 0 14 20 0 62 -42z m-2347 -124 c-4 -5 -1 -9 5 -9 24 0 90 -56 100
-84 14 -41 13 -42 -12 -13 -30 34 -120 67 -183 67 -28 0 -82 -7 -120 -15 -39
-8 -88 -15 -110 -15 l-40 -1 30 -14 c25 -11 27 -14 9 -14 -31 -1 -84 10 -84
18 0 23 102 50 315 84 82 13 100 13 90 -4z m3599 -95 c107 -6 109 -7 71 -20
-21 -7 -57 -16 -79 -20 -22 -3 -59 -13 -81 -22 -110 -41 -231 -79 -238 -75
-10 6 6 14 126 67 85 38 88 40 65 52 -12 7 -54 14 -93 15 -63 2 -66 3 -30 9
22 5 65 6 95 4 30 -2 104 -7 164 -10z m-89 -262 c59 -11 33 -19 -100 -31 -66
-7 -163 -20 -215 -31 -52 -11 -158 -31 -235 -45 -77 -14 -158 -30 -180 -36
-22 -6 -105 -13 -185 -16 -120 -4 -143 -3 -132 8 7 7 49 16 100 20 93 8 139
15 327 49 66 12 156 27 200 35 103 17 200 34 250 44 51 11 119 12 170 3z
m-975 -524 c74 -57 92 -67 144 -78 135 -31 438 -148 408 -158 -6 -2 -53 10
-104 26 -127 40 -316 88 -322 81 -3 -3 3 -36 14 -73 10 -37 22 -99 25 -139 l6
-72 -19 55 c-11 30 -27 82 -36 115 -26 91 -42 122 -94 178 -72 79 -86 97 -75
97 5 0 29 -15 53 -32z m1187 -170 c21 -18 58 -55 83 -82 25 -27 79 -85 121
-130 96 -103 146 -186 198 -331 37 -103 42 -113 108 -187 26 -31 54 -73 62
-94 7 -22 38 -87 67 -147 30 -59 54 -112 54 -118 0 -26 -46 50 -110 183 -38
79 -84 159 -102 178 -55 57 -74 90 -104 180 -34 102 -96 204 -174 285 -32 33
-82 94 -112 135 -31 41 -76 94 -101 118 -54 49 -46 57 10 10z m-36 -195 c25
-26 62 -68 81 -93 70 -90 303 -494 250 -435 -29 33 -73 97 -97 140 -51 90
-147 229 -209 300 -34 39 -69 82 -79 98 -9 15 -25 39 -34 54 l-18 28 30 -22
c17 -12 51 -43 76 -70z m752 -25 c38 -28 87 -74 109 -102 22 -28 53 -58 68
-68 51 -31 214 -260 183 -257 -9 0 -78 85 -141 174 -44 62 -162 173 -275 260
-36 28 -66 53 -66 57 -2 16 58 -15 122 -64z m-2697 -27 c39 -33 85 -80 102
-106 29 -44 78 -182 68 -192 -2 -3 -15 8 -28 23 -13 15 -37 44 -54 63 -60 70
-121 157 -157 224 -43 79 -36 78 69 -12z m2542 -356 c68 -110 123 -231 157
-348 29 -102 29 -103 10 -83 -8 8 -15 17 -15 19 0 3 -24 56 -54 118 -29 63
-66 141 -81 174 -15 33 -56 101 -90 151 -62 90 -95 146 -95 161 0 22 119 -114
168 -192z m33 87 c26 -40 66 -94 87 -120 21 -26 63 -83 92 -127 29 -44 70
-102 91 -130 20 -27 47 -67 58 -89 76 -135 -99 80 -200 247 -26 43 -59 93 -73
110 -24 29 -82 113 -130 191 l-20 31 24 -20 c13 -11 45 -53 71 -93z m-1111
-43 c86 -49 171 -125 205 -184 27 -46 95 -231 95 -258 0 -26 -104 47 -153 107
-21 25 -80 91 -131 146 -66 71 -106 125 -135 181 -53 105 -53 119 2 81 23 -17
76 -49 117 -73z m-3620 -144 c-6 -8 -33 -26 -58 -41 -26 -15 -83 -64 -127
-108 -44 -45 -105 -104 -135 -132 -30 -29 -87 -87 -127 -130 -40 -44 -87 -88
-105 -98 l-33 -19 20 24 c11 13 47 54 80 90 33 37 79 89 101 116 23 27 62 62
85 78 24 16 78 65 119 108 55 58 90 85 130 103 66 28 66 28 50 9z m4013 -102
c38 -101 59 -179 55 -210 l-3 -27 -11 25 c-32 73 -71 146 -90 168 -29 35 -76
130 -71 144 2 6 18 -11 36 -37 38 -55 50 -54 27 4 -21 54 -20 60 8 28 13 -14
35 -57 49 -95z m1330 -335 c9 -29 28 -93 43 -143 15 -49 29 -92 31 -94 2 -3 9
4 16 13 12 16 15 5 26 -80 10 -75 10 -106 1 -129 -11 -29 -12 -29 -26 -11 -8
11 -14 39 -14 62 0 52 -10 104 -20 104 -4 0 -11 -33 -15 -72 -11 -119 -15
-142 -25 -152 -14 -14 -23 60 -15 128 11 84 6 190 -11 255 -19 73 -30 186 -17
178 5 -3 17 -30 26 -59z m168 -103 c10 -27 18 -74 19 -103 0 -38 3 -51 12 -46
8 5 9 -4 5 -32 -4 -21 -7 -52 -7 -69 0 -25 -2 -27 -14 -15 -18 19 -46 145 -46
207 0 26 -9 72 -20 101 -11 29 -20 69 -20 90 l0 37 26 -60 c15 -33 35 -82 45
-110z m-489 87 c15 -31 30 -77 33 -102 3 -25 10 -67 16 -95 7 -34 7 -58 0 -75
-7 -19 -10 -20 -10 -7 -1 10 -12 43 -26 73 -14 30 -25 59 -25 63 0 5 -16 33
-36 62 -20 30 -40 65 -45 78 -8 21 -4 19 31 -13 36 -33 60 -45 60 -31 0 3 -11
28 -25 55 -29 56 -30 61 -12 55 7 -3 24 -31 39 -63z m-78 -222 c47 -78 59
-107 67 -164 6 -37 9 -70 7 -72 -5 -5 -92 116 -111 155 -10 19 -17 42 -17 51
0 37 -34 95 -87 151 -73 77 -60 93 21 26 45 -38 78 -78 120 -147z m328 -29
c17 -40 19 -60 14 -156 -6 -115 -16 -166 -32 -172 -5 -2 -8 39 -6 102 3 111
-10 170 -22 99 -14 -80 -51 -204 -63 -209 -33 -12 -1 142 54 263 19 42 24 64
19 94 -8 52 9 42 36 -21z"/>
<path d="M4776 10768 c-4 -18 -4 -105 0 -193 3 -88 7 -200 9 -250 27 -720 29
-757 61 -810 l24 -40 -6 55 c-2 30 -9 96 -14 145 -6 50 -10 108 -10 130 0 22
-3 255 -6 518 l-5 477 -23 0 c-18 0 -25 -7 -30 -32z"/>
<path d="M8351 10763 c-8 -21 -26 -56 -41 -78 -32 -47 -46 -85 -31 -85 5 0 13
5 16 10 3 6 15 10 27 10 18 0 19 -4 14 -36 -7 -32 -5 -34 11 -26 10 6 27 20
37 31 11 12 25 21 32 21 7 0 16 10 20 23 3 12 15 34 25 49 11 14 19 38 19 53
0 14 5 35 10 46 10 17 7 19 -22 19 -28 0 -36 -5 -48 -32 l-15 -33 -3 33 c-5
46 -34 43 -51 -5z"/>
<path d="M8870 10786 c0 -8 16 -27 36 -42 37 -29 36 -29 64 16 14 23 25 3 14
-28 -5 -15 -24 -36 -41 -47 -38 -24 -41 -35 -10 -35 20 -1 19 -4 -15 -35 -37
-34 -37 -35 -13 -35 16 0 25 -6 25 -15 0 -18 14 -19 41 -5 14 8 19 7 19 -1 0
-6 7 -8 15 -5 11 4 17 -3 22 -24 7 -36 13 -37 43 -5 28 30 44 32 37 5 -4 -15
-1 -21 11 -19 41 4 45 0 28 -26 -16 -24 -16 -25 7 -25 12 0 33 7 45 16 42 29
57 -7 21 -55 -11 -15 -22 -41 -24 -57 -1 -16 -11 -33 -20 -39 -10 -5 -30 -20
-45 -32 -33 -27 -68 -30 -85 -6 -11 15 -13 15 -19 -4 -6 -18 -44 -39 -53 -29
-2 2 3 16 12 32 25 49 6 44 -95 -22 -20 -13 -50 -27 -68 -30 l-32 -7 16 38
c23 55 12 63 -33 22 -68 -62 -90 -37 -28 32 44 48 30 61 -25 25 -38 -25 -67
-27 -43 -3 7 7 8 18 3 28 -5 9 -11 29 -15 44 -5 24 -8 27 -21 16 -11 -9 -13
-23 -8 -53 3 -23 11 -46 16 -53 5 -7 11 -32 12 -55 2 -42 2 -43 -38 -56 -23
-6 -83 -15 -135 -19 -76 -5 -93 -4 -86 7 6 10 0 11 -31 4 -21 -4 -57 -9 -79
-9 -74 -3 -212 -24 -390 -59 -43 -8 324 -4 390 4 39 5 162 14 275 19 113 6
284 17 380 25 224 20 458 36 505 36 27 0 44 -8 66 -29 25 -25 29 -38 30 -83 0
-29 7 -93 14 -143 8 -49 21 -148 30 -220 8 -71 24 -184 35 -250 11 -66 20
-151 20 -190 0 -38 5 -110 10 -160 6 -49 13 -133 16 -185 3 -52 10 -129 15
-170 5 -41 14 -138 20 -215 5 -77 14 -167 20 -200 5 -33 18 -148 29 -255 11
-107 24 -233 30 -280 6 -47 15 -130 20 -185 5 -55 13 -116 19 -135 6 -19 11
-69 11 -110 0 -41 9 -151 20 -245 11 -93 23 -199 25 -235 11 -139 28 -269 46
-357 10 -51 19 -116 20 -145 0 -29 4 -62 9 -73 6 -13 8 40 5 140 -5 182 -14
285 -23 285 -4 0 -7 53 -8 118 -1 64 -6 167 -12 227 -30 285 -36 396 -25 414
7 11 8 23 2 32 -4 8 -5 25 -2 39 6 22 5 24 -10 11 -24 -19 -29 1 -25 98 2 55
-1 81 -8 81 -14 0 -24 46 -24 109 0 56 16 81 125 193 74 76 75 76 75 45 0 -26
-13 -45 -71 -103 -61 -61 -68 -72 -51 -76 14 -4 39 9 81 44 l61 49 0 -44 c0
-35 -6 -51 -30 -78 -42 -48 -38 -61 5 -16 32 34 35 35 35 15 0 -13 11 -56 25
-96 15 -45 25 -96 25 -131 0 -31 5 -72 10 -91 6 -19 12 -131 14 -248 2 -117 7
-216 10 -219 3 -4 6 17 6 45 0 28 5 54 10 57 6 4 10 -13 10 -44 0 -27 7 -78
16 -113 12 -46 15 -88 11 -158 -3 -52 -2 -86 3 -75 11 29 17 -47 8 -102 -5
-28 -3 -56 6 -81 9 -26 14 -85 14 -168 0 -86 6 -149 16 -189 9 -32 16 -80 16
-106 0 -50 17 -109 31 -109 5 0 9 -13 9 -29 0 -15 4 -41 9 -57 5 -16 14 -74
20 -129 7 -55 15 -122 18 -149 4 -34 8 -44 14 -35 5 8 7 30 4 49 -3 19 -14
121 -25 225 -11 105 -26 251 -34 325 -8 74 -22 216 -31 315 -9 99 -23 219 -31
266 -8 48 -14 108 -14 134 0 27 -7 107 -15 179 -8 72 -19 181 -24 241 -6 61
-17 166 -26 235 -39 312 -64 522 -75 635 -5 55 -16 152 -25 215 -8 63 -21 183
-30 265 -9 83 -22 202 -30 265 -8 63 -17 142 -20 175 -3 33 -20 175 -36 315
-17 140 -37 316 -45 390 -13 122 -22 197 -54 470 -6 47 -15 117 -21 155 -5 39
-13 107 -16 153 l-6 82 -340 0 c-312 0 -341 -1 -353 -17 -13 -17 -13 -17 -14
0 0 15 -12 17 -115 17 -94 0 -115 -3 -115 -14z m810 -317 c0 -6 -4 -18 -9 -27
-4 -9 -11 -29 -15 -45 -6 -27 -6 -27 39 -23 26 3 53 10 61 17 24 20 17 -10
-12 -48 -22 -29 -30 -34 -53 -28 -53 14 -60 13 -76 -5 -9 -10 -16 -27 -15 -37
4 -37 0 -41 -24 -20 -28 25 -26 68 5 107 11 14 33 46 50 73 29 45 49 60 49 36z
m-406 -77 c-3 -15 -2 -22 3 -16 12 17 57 39 48 24 -5 -9 -2 -10 13 -6 17 6 19
3 15 -14 -7 -26 13 -26 27 0 6 11 16 20 23 20 8 0 8 -3 -2 -9 -7 -5 -11 -14
-7 -20 9 -13 -11 -88 -25 -97 -6 -3 -19 2 -30 12 -19 17 -21 17 -50 0 -21 -12
-34 -15 -41 -8 -7 7 -23 6 -50 -4 -61 -21 -65 -17 -26 24 20 20 44 53 53 72
10 19 22 41 27 47 16 20 29 5 22 -25z m684 -1847 c-12 -27 -33 -61 -46 -74
-22 -22 -24 -22 -36 -5 -13 17 -14 16 -20 -4 -4 -12 -12 -22 -17 -22 -6 0 -8
-12 -5 -28 4 -17 1 -35 -8 -47 -27 -38 -36 0 -24 105 3 30 4 47 1 38 -8 -30
-26 -21 -19 10 4 15 9 47 13 72 9 73 48 98 60 39 l6 -31 48 53 c27 30 49 61
50 69 1 8 6 -16 11 -55 8 -63 6 -75 -14 -120z"/>
<path d="M10154 10768 c3 -18 10 -76 16 -129 5 -53 14 -118 20 -145 5 -27 14
-96 20 -154 14 -144 59 -477 70 -520 5 -19 12 -66 16 -105 3 -38 8 -81 10 -95
2 -14 8 -70 13 -125 29 -311 49 -476 77 -630 8 -44 14 -101 14 -127 0 -26 5
-69 10 -95 6 -27 15 -112 20 -188 4 -77 13 -163 18 -191 6 -28 18 -118 27
-200 9 -82 25 -221 35 -309 11 -88 24 -209 30 -270 17 -181 21 -209 25 -225 7
-21 23 -168 40 -355 8 -88 21 -219 30 -292 8 -72 17 -156 20 -185 3 -29 10
-80 16 -113 6 -33 12 -82 14 -110 6 -91 25 -249 34 -295 6 -25 10 -89 11 -142
0 -53 5 -109 11 -124 5 -16 14 -59 19 -97 5 -38 13 -74 19 -80 8 -8 11 39 10
163 -1 218 -12 373 -34 470 -9 41 -20 116 -23 166 -5 67 -12 97 -25 112 -14
15 -16 29 -11 74 4 36 1 73 -9 109 -15 53 -26 150 -31 279 -2 36 -8 92 -14
125 -21 115 -44 334 -40 372 3 21 -1 55 -9 77 -7 21 -13 78 -13 127 0 51 -4
91 -11 94 -6 4 -9 22 -8 40 2 18 -2 39 -8 47 -7 7 -14 74 -18 158 -4 80 -8
172 -10 205 -1 33 -6 76 -9 95 -4 19 -9 53 -11 75 -5 49 -21 152 -35 225 -7
34 -8 109 -4 195 6 129 4 144 -15 189 -27 61 -22 78 21 76 53 -3 55 -2 61 36
7 41 -6 74 -28 74 -12 0 -12 -4 1 -27 19 -38 18 -44 -8 -34 -13 5 -35 7 -50 5
-25 -2 -28 1 -28 27 0 18 4 28 10 24 6 -3 10 -2 10 3 0 5 -10 12 -22 15 -12 4
-20 9 -17 12 3 3 20 0 38 -6 25 -9 35 -9 44 1 9 10 8 12 -5 7 -25 -9 -22 5 5
31 24 22 40 21 31 -3 -3 -7 -1 -16 4 -19 5 -3 12 8 16 24 3 17 28 64 56 106
33 49 50 83 47 97 -3 22 -4 22 -14 -3 -6 -14 -21 -34 -33 -45 l-23 -20 5 22
c5 19 3 21 -12 13 -10 -6 -40 -10 -65 -10 -30 0 -52 -6 -63 -17 -16 -15 -17
-15 -20 0 -5 27 23 68 63 90 48 27 72 66 81 135 6 48 5 52 -11 45 -15 -5 -17
-3 -12 11 11 28 -64 96 -104 96 -24 0 -30 -3 -25 -16 3 -9 9 -27 12 -40 4 -15
13 -24 25 -24 10 0 19 -3 19 -7 0 -15 -36 -62 -62 -82 l-26 -21 2 33 c2 18 8
41 13 52 11 21 6 85 -7 85 -4 0 -10 -18 -14 -39 -10 -64 -26 -59 -26 7 0 42 5
63 15 72 16 13 13 63 -6 86 -5 6 16 35 57 77 62 64 73 71 101 68 17 -2 40 42
25 47 -6 2 1 14 16 27 22 20 24 24 10 25 -10 0 -18 -5 -18 -11 0 -6 -7 -8 -16
-5 -8 3 -12 2 -9 -4 3 -5 -3 -15 -15 -22 -11 -7 -20 -18 -20 -25 0 -7 -5 -13
-11 -13 -13 0 -39 -25 -39 -39 0 -6 -10 -15 -22 -21 -22 -11 -22 -10 -4 4 28
23 13 30 -23 12 -41 -22 -51 -20 -51 9 0 15 8 29 23 36 12 7 24 15 27 18 3 4
30 19 61 34 31 15 72 44 92 64 20 21 43 44 51 50 20 17 62 156 48 161 -5 1 -8
12 -5 22 4 14 0 20 -11 20 -25 0 -19 17 9 24 34 9 105 119 105 163 0 34 16 45
26 18 12 -30 34 -16 34 21 0 34 -1 35 -30 29 -16 -3 -37 -2 -47 4 -11 6 -13
11 -5 11 9 0 11 7 7 19 -5 17 1 22 34 31 l41 11 0 54 0 54 -37 3 -38 3 23 20
c12 11 22 30 22 42 0 20 -5 23 -41 23 l-41 0 6 -37 c12 -65 11 -96 0 -100 -6
-2 -14 5 -17 17 -7 27 -24 26 -33 -2 -15 -53 -60 -76 -66 -36 -2 13 -11 24
-22 26 -11 2 -31 15 -45 28 -26 24 -26 24 -3 24 19 0 22 5 22 40 l0 40 -191 0
-191 0 6 -32z m447 -310 c-6 -18 -23 -50 -38 -71 -53 -76 0 -42 64 42 7 9 13
26 13 37 0 20 27 41 38 30 9 -10 -30 -77 -73 -126 -24 -27 -49 -65 -56 -84
-11 -31 -17 -36 -44 -35 -49 2 -130 23 -127 34 2 6 11 9 20 7 10 -1 33 11 52
28 18 16 37 30 41 30 5 0 14 18 20 41 7 22 24 48 37 57 13 10 31 25 40 34 22
24 26 15 13 -24z"/>
<path d="M4699 7408 c-23 -46 -57 -103 -74 -128 -32 -46 -95 -170 -95 -188 0
-5 -19 -26 -42 -46 -24 -21 -82 -74 -129 -119 -47 -45 -108 -101 -136 -124
-37 -31 -60 -62 -88 -120 -20 -43 -50 -103 -66 -134 -16 -31 -29 -60 -29 -65
0 -15 52 61 79 116 56 114 95 172 140 208 25 20 52 43 59 50 15 14 32 16 32 4
0 -5 -21 -34 -47 -65 -27 -31 -63 -78 -82 -104 l-34 -48 32 29 c53 51 44 22
-19 -60 -101 -132 -142 -195 -156 -241 -7 -23 -12 -43 -10 -43 2 0 16 25 31
55 16 30 62 97 103 148 41 50 106 133 143 182 38 50 103 133 144 185 110 138
133 172 151 226 19 59 115 242 158 302 25 36 28 45 16 52 -28 18 -38 9 -81
-72z"/>
<path d="M4485 6873 c-10 -14 -35 -45 -55 -67 -21 -23 -58 -71 -82 -107 -25
-37 -68 -93 -95 -125 -52 -61 -97 -137 -91 -156 2 -6 20 14 40 44 19 29 60 82
91 117 31 36 64 80 74 100 26 52 64 101 77 101 15 0 53 58 61 93 9 34 2 34
-20 0z"/>
<path d="M3950 6587 c0 -9 -3 -17 -7 -17 -5 0 -13 -10 -19 -23 -6 -12 -31 -62
-57 -112 -25 -49 -58 -128 -72 -175 -15 -47 -30 -95 -35 -107 -5 -12 -12 -46
-15 -75 l-6 -53 21 44 c11 24 36 95 54 156 19 62 51 145 70 184 45 88 80 180
72 188 -3 4 -6 -1 -6 -10z"/>
<path d="M3749 6511 c-36 -36 -110 -144 -146 -213 -17 -32 -33 -55 -36 -52 -7
8 -18 -19 -41 -97 -21 -73 -31 -149 -20 -149 5 0 29 53 53 118 54 145 87 211
162 325 33 50 58 91 57 92 -2 2 -15 -9 -29 -24z"/>
<path d="M3220 6183 c-61 -69 -86 -114 -101 -185 -11 -53 -21 -75 -59 -133
-11 -16 -23 -37 -26 -45 -4 -8 -27 -43 -51 -77 -51 -73 -55 -88 -12 -47 59 56
179 258 179 301 0 19 65 149 94 188 56 75 44 73 -24 -2z"/>
<path d="M6550 6091 c50 -12 102 -36 125 -59 55 -53 95 -103 101 -126 3 -14
10 -26 15 -26 11 0 11 3 -1 34 -21 57 41 3 72 -62 l17 -37 1 33 c0 71 -38 119
-162 204 -46 32 -63 37 -128 42 -51 4 -64 3 -40 -3z"/>
<path d="M6145 6058 c-18 -11 -17 -12 15 -24 19 -7 56 -13 81 -13 25 -1 60 -8
77 -16 17 -9 63 -23 102 -31 39 -8 83 -22 96 -31 38 -25 43 -5 6 28 -27 24
-41 29 -83 29 -68 0 -62 24 7 28 45 3 56 -2 133 -53 76 -50 121 -68 121 -47 0
13 -92 96 -128 116 -35 19 -118 22 -322 12 -61 -3 -82 -2 -60 3 35 8 35 8 5 9
-16 1 -39 -4 -50 -10z"/>
<path d="M5921 6020 c-33 -22 -78 -48 -99 -59 -47 -24 -206 -46 -274 -38 -38
5 -70 1 -122 -15 -138 -41 -227 -94 -98 -58 37 10 81 24 97 31 17 6 102 17
190 25 122 9 179 19 239 39 96 33 162 27 409 -36 42 -11 87 -19 100 -16 21 3
21 4 -6 15 -15 7 -38 23 -50 36 -19 20 -42 28 -120 40 -116 19 -208 21 -225 4
-7 -7 -12 -8 -12 -4 0 10 42 45 55 46 6 0 19 7 29 15 19 14 18 15 -16 15 -24
0 -54 -13 -97 -40z"/>
<path d="M8504 5751 c3 -5 -11 -9 -32 -9 -20 0 -82 -4 -137 -9 -80 -8 -113
-16 -165 -41 -58 -29 -138 -89 -128 -96 13 -12 50 -26 66 -26 10 0 27 -9 36
-19 16 -18 43 -24 159 -34 23 -2 25 -4 12 -13 -21 -15 -19 -37 3 -30 9 3 45
10 80 17 l63 12 41 -39 c48 -47 57 -68 64 -153 3 -36 9 -70 15 -75 5 -6 9 -2
9 11 0 11 7 38 17 59 20 48 18 101 -8 173 -10 30 -19 79 -19 108 0 54 -22 125
-48 156 -15 17 -38 24 -28 8z"/>
<path d="M5843 5560 c-200 -6 -199 -5 -218 -136 -8 -49 -11 -92 -9 -96 11 -17
-33 -7 -54 12 -27 26 -27 46 -2 138 11 39 20 74 20 77 0 3 -20 5 -44 5 -78 0
-122 -60 -114 -160 3 -37 8 -47 35 -62 17 -10 56 -23 86 -28 46 -7 61 -15 96
-52 52 -54 91 -131 91 -177 0 -20 -7 -57 -14 -83 -21 -68 -39 -367 -40 -648
-1 -230 0 -247 19 -280 59 -100 230 -162 638 -229 37 -7 72 -9 77 -6 5 3 41
-2 81 -11 73 -16 119 -16 284 5 203 25 303 64 366 143 107 136 296 481 399
728 25 61 48 98 85 135 87 89 162 94 228 15 37 -44 51 -40 41 13 -20 105 -6
139 72 186 58 35 72 56 27 44 -50 -14 -167 -6 -253 17 -116 31 -175 59 -291
135 -55 36 -127 79 -159 95 -75 38 -272 105 -370 125 -207 43 -322 64 -390 70
-41 3 -100 10 -130 15 -71 12 -350 17 -557 10z m652 -106 c281 -14 613 -97
774 -193 132 -79 202 -173 235 -315 14 -61 15 -74 1 -126 -8 -32 -28 -86 -44
-121 -61 -135 -119 -286 -126 -325 -10 -67 -85 -182 -190 -292 -117 -123 -189
-164 -330 -189 -176 -30 -540 -2 -740 58 -183 55 -289 137 -321 247 -30 102
-8 498 41 762 34 176 48 237 66 278 23 53 121 157 174 185 49 25 199 47 280
42 33 -3 114 -7 180 -11z"/>
<path d="M5985 5060 c-100 -11 -133 -40 -142 -121 -4 -46 -1 -59 19 -89 33
-48 76 -75 146 -90 50 -10 63 -10 89 3 52 27 100 86 123 151 39 113 36 109 78
102 35 -6 75 -20 151 -53 38 -16 112 -73 154 -118 21 -22 26 -37 23 -57 -5
-24 -2 -28 17 -28 31 0 67 27 67 51 0 30 -20 61 -34 56 -7 -3 -45 21 -83 52
-86 70 -139 96 -262 127 -97 25 -213 30 -346 14z"/>
<path d="M7407 4919 c-7 -53 -37 -84 -104 -109 -92 -34 -129 -57 -176 -110
-52 -57 -82 -127 -105 -244 -13 -67 -14 -89 -3 -150 7 -39 16 -95 18 -123 6
-59 13 -65 33 -28 12 22 11 38 -3 108 -21 101 -21 146 -2 222 43 171 119 260
252 300 78 23 133 93 119 150 -10 37 -23 30 -29 -16z"/>
<path d="M6525 4824 c-23 -29 -151 -69 -252 -80 -35 -4 -68 -13 -74 -20 -9
-11 -8 -14 5 -14 9 0 15 -6 14 -12 -2 -10 20 -14 81 -16 46 -2 91 0 100 3 14
6 14 8 -2 19 -15 12 -9 16 53 35 68 22 126 68 117 94 -6 19 -22 16 -42 -9z"/>
<path d="M7362 4693 c-12 -28 -22 -54 -22 -57 0 -20 -164 -340 -194 -380 -37
-48 -98 -167 -91 -175 30 -29 214 295 297 521 42 115 50 182 10 91z"/>
<path d="M10405 5355 c2 -22 12 -152 20 -290 9 -137 23 -280 31 -317 8 -37 14
-92 14 -123 0 -31 6 -88 14 -128 8 -40 17 -116 19 -169 3 -53 10 -105 16 -115
15 -25 15 216 0 254 -6 15 -15 75 -20 133 -8 100 -29 293 -49 445 -5 39 -9
109 -9 157 -1 48 -5 90 -11 93 -5 3 -10 18 -11 33 0 15 -4 36 -9 47 -7 15 -8
9 -5 -20z"/>
<path d="M8400 5184 c-14 -2 -59 -9 -100 -15 -167 -24 -272 -69 -305 -129 -8
-14 -27 -65 -43 -115 -17 -49 -40 -115 -53 -145 -23 -54 -24 -63 -23 -318 1
-145 -3 -259 -7 -255 -4 4 -16 35 -27 68 -17 53 -19 80 -14 233 3 118 1 172
-6 172 -6 0 -14 -21 -18 -47 -3 -27 -11 -57 -17 -67 -9 -19 -10 -19 -23 -1
-23 32 -16 80 21 142 19 31 32 59 29 62 -7 7 -94 -81 -94 -96 0 -28 -20 -11
-21 17 -3 66 -4 73 -15 77 -39 13 -17 -158 38 -287 93 -224 141 -348 158 -416
29 -111 79 -224 122 -270 92 -100 389 -165 658 -144 199 15 279 43 338 118 27
33 46 70 128 248 48 102 127 330 183 529 12 40 40 99 65 138 29 45 49 88 56
125 6 31 13 62 14 67 6 17 -25 60 -58 83 -51 35 -292 128 -402 156 -97 25
-197 43 -273 50 -21 2 -47 8 -57 13 -19 9 -207 14 -254 7z m288 -85 c296 -33
503 -127 557 -254 17 -39 22 -237 7 -295 -6 -25 -21 -90 -33 -145 -12 -55 -47
-165 -79 -245 -32 -80 -61 -159 -64 -177 -15 -67 -139 -202 -221 -239 -82 -38
-154 -47 -320 -41 -335 13 -500 97 -553 284 -25 89 -25 662 1 783 29 138 109
245 217 292 98 43 299 58 488 37z"/>
<path d="M8650 4993 c0 -17 21 -76 37 -106 17 -32 11 -88 -12 -107 -8 -7 -15
-18 -15 -25 0 -7 -7 -18 -15 -25 -13 -11 -19 -9 -38 8 -40 38 -118 64 -212 71
-49 4 -103 4 -120 -1 -16 -5 -52 -11 -80 -14 -86 -9 -122 -23 -155 -60 -34
-39 -35 -71 -3 -106 14 -16 171 -88 192 -88 17 0 87 76 106 116 13 27 16 51
12 89 l-5 53 44 -14 c72 -21 106 -56 115 -114 10 -60 -48 -131 -123 -151 -24
-6 -51 -18 -61 -27 -18 -16 -18 -17 5 -23 12 -4 65 -7 115 -8 110 -1 117 -7
131 -111 9 -65 9 -65 17 -27 7 35 2 80 -21 215 -5 27 1 43 35 94 22 34 41 67
41 74 0 8 13 20 29 28 23 13 69 15 257 11 126 -2 239 -1 252 2 28 7 26 24 -16
111 l-28 57 -89 0 c-50 -1 -146 -3 -215 -5 l-125 -5 -22 44 c-24 48 -33 60
-33 44z"/>
<path d="M9168 4703 c-12 -13 -19 -45 -23 -113 -7 -109 -17 -140 -58 -193 -38
-49 -227 -174 -348 -231 -139 -65 -141 -69 -151 -229 -5 -72 -6 -147 -3 -164
5 -30 9 -33 43 -33 20 0 75 8 122 17 78 16 89 21 133 66 97 96 276 534 298
727 6 50 9 109 7 131 -3 40 -4 41 -20 22z m-118 -405 c-1 -23 -49 -146 -75
-197 -63 -118 -144 -195 -282 -265 -55 -28 -63 -25 -37 12 8 12 12 27 9 32
-16 26 10 51 100 94 110 53 133 76 182 176 46 94 80 150 93 150 6 0 10 -1 10
-2z"/>
<path d="M5660 5119 c0 -20 -10 -50 -22 -69 -19 -27 -36 -37 -93 -53 -38 -11
-78 -25 -88 -32 -15 -11 -16 -14 -2 -25 11 -9 22 -9 46 -1 18 6 55 11 83 10
l51 0 -55 -15 c-30 -8 -64 -24 -75 -35 -20 -20 -20 -20 36 -13 53 6 58 5 74
-19 14 -21 15 -44 11 -144 -3 -65 -7 -201 -10 -303 -3 -145 -2 -162 4 -80 15
198 31 515 29 570 -1 33 5 71 15 94 25 60 30 108 12 131 -15 19 -15 18 -16
-16z"/>
<path d="M2306 5018 c-2 -13 -9 -58 -16 -102 -6 -43 -19 -97 -27 -120 -24 -63
-23 -305 1 -426 35 -179 76 -331 100 -375 179 -320 240 -411 347 -516 109
-108 172 -150 356 -239 57 -27 108 -58 116 -72 9 -12 18 -45 22 -73 8 -67 32
-220 50 -325 53 -314 65 -524 52 -970 -6 -222 1 -203 23 65 32 384 17 614 -76
1155 -8 47 -14 95 -14 108 0 56 -32 86 -160 148 -171 82 -248 136 -351 241
-77 79 -179 207 -179 226 0 4 -97 179 -146 262 -32 55 -48 96 -64 170 -18 80
-20 87 -30 150 -6 33 -14 83 -19 110 -16 82 -13 293 4 355 16 57 33 250 22
250 -4 0 -9 -10 -11 -22z"/>
<path d="M10542 4103 c-17 -30 -15 -177 3 -319 17 -127 23 -146 37 -120 6 11
5 64 -2 144 -6 70 -14 170 -18 222 -6 82 -9 92 -20 73z"/>
<path d="M2690 4094 c0 -10 29 -31 72 -54 23 -12 57 -20 88 -20 61 0 96 -17
133 -64 30 -39 82 -60 135 -54 l34 3 -40 43 c-31 33 -46 42 -73 42 -20 0 -55
13 -84 30 -33 20 -64 30 -91 30 -23 0 -67 11 -98 25 -58 25 -76 30 -76 19z"/>
<path d="M10225 3827 l7 -224 -32 -26 c-17 -15 -41 -29 -53 -32 -62 -15 -688
-46 -1047 -51 -129 -2 -297 -7 -374 -12 -187 -11 -178 1 -194 -243 -21 -304
-52 -496 -112 -694 -10 -33 -28 -94 -39 -135 -29 -104 -93 -266 -148 -373 -50
-98 -112 -184 -264 -373 -178 -222 -249 -349 -353 -638 -39 -106 -43 -127 -24
-108 21 21 62 13 122 -23 l59 -35 -6 45 c-4 25 -5 45 -3 45 1 0 20 -25 42 -57
38 -56 41 -57 244 -155 255 -123 382 -188 530 -270 63 -35 149 -77 190 -93 84
-34 57 -33 500 -22 270 6 308 -2 115 -23 -55 -6 -116 -13 -135 -14 -19 -1 -46
-3 -59 -4 -15 -1 -21 -7 -18 -16 4 -9 0 -12 -11 -10 -22 5 -54 -20 -47 -37 5
-13 150 -89 169 -89 6 0 -4 15 -20 32 -30 32 -64 82 -64 93 0 12 19 3 44 -20
15 -14 33 -25 39 -25 7 0 30 -12 51 -26 33 -23 46 -26 87 -21 44 5 55 2 113
-33 35 -22 77 -42 93 -45 l28 -6 -26 23 c-14 13 -53 45 -85 72 -53 44 -56 48
-29 42 17 -3 61 -11 98 -16 89 -13 117 -27 131 -69 16 -49 53 -72 128 -80 42
-4 75 -14 96 -29 18 -13 32 -19 32 -14 0 16 -45 50 -75 58 -16 4 -41 13 -55
20 -14 7 -42 20 -62 28 -20 8 -41 24 -48 35 -10 20 -8 21 39 21 65 0 95 12
135 56 l34 37 43 -40 c24 -22 55 -44 69 -48 14 -4 41 -18 60 -31 19 -13 47
-24 62 -24 16 0 28 -4 28 -10 0 -5 -17 -10 -37 -10 l-38 -1 30 -25 c124 -104
123 -104 164 -104 22 0 43 4 46 10 8 13 52 13 57 0 2 -7 35 -10 87 -8 l83 3
-31 39 c-48 60 -39 78 14 26 25 -24 45 -50 45 -57 0 -8 13 -13 33 -13 24 0 35
6 42 22 6 13 25 27 43 32 l33 9 -3 101 -3 101 -37 3 c-29 2 -38 0 -38 -12 0
-9 5 -16 10 -16 6 0 10 -7 10 -16 0 -9 10 -32 22 -52 14 -22 17 -33 8 -30 -16
5 -23 17 -45 73 l-16 40 -20 -27 c-13 -17 -30 -28 -45 -28 -21 0 -23 3 -18 30
4 19 1 38 -10 55 -9 13 -16 26 -16 27 0 2 21 4 48 4 26 1 71 5 100 9 49 7 52
9 52 36 l0 29 -97 0 c-66 1 -106 5 -123 15 -23 13 -14 14 98 15 l122 0 0 183
0 182 -152 -3 c-147 -3 -154 -2 -180 20 -15 13 -30 36 -34 51 l-7 29 26 -26
c14 -14 34 -26 44 -27 10 0 82 -2 160 -2 140 -2 143 -2 143 19 0 13 -8 24 -19
27 -27 7 -59 62 -67 114 -3 23 -15 50 -25 59 -23 21 -24 34 -4 34 8 0 15 6 15
14 0 21 20 30 33 17 6 -6 24 -11 39 -11 26 0 28 3 28 38 0 31 -5 40 -33 56
-26 16 -54 20 -157 21 l-125 2 -39 -40 -39 -39 -84 4 c-62 3 -88 9 -101 22
-16 17 -15 17 23 10 22 -4 65 -7 95 -8 50 0 60 4 110 42 30 23 62 42 71 42 18
0 15 27 -11 97 -21 57 -5 57 38 0 23 -31 42 -60 42 -65 0 -25 28 -32 63 -17
20 8 54 15 76 15 22 0 46 3 55 6 21 8 20 53 -1 70 -17 13 -17 15 0 25 11 7 17
23 17 49 0 36 -2 39 -32 42 -46 4 -49 28 -4 28 l36 0 0 121 0 122 -67 -8 c-38
-5 -151 -9 -253 -10 -102 -1 -237 -7 -300 -13 -138 -14 -320 -16 -320 -3 0 14
27 21 78 21 26 0 63 5 82 10 19 6 157 12 305 15 149 3 316 8 373 11 l102 6 0
38 c0 32 -4 39 -22 43 l-23 4 23 2 c21 1 22 4 22 106 0 83 -3 105 -14 105 -19
0 -36 23 -42 56 -3 15 -7 31 -9 35 -6 8 20 19 46 19 11 0 19 7 19 16 0 11 -8
15 -27 14 -16 -1 -34 -2 -42 -1 -23 2 20 30 46 31 21 0 22 3 22 122 l1 121
-108 -7 c-59 -3 -206 -11 -327 -16 -121 -6 -256 -12 -300 -15 -44 -3 -188 -8
-320 -12 -210 -5 -244 -4 -270 10 l-30 16 35 2 c19 1 53 3 75 4 22 1 173 7
335 13 446 18 736 31 828 38 78 5 82 7 82 29 0 17 -7 25 -22 28 l-23 4 23 2
c22 1 22 2 21 135 0 93 -4 136 -12 140 -9 3 -8 5 1 5 8 1 12 25 12 87 l0 86
-32 -6 c-86 -16 -412 -17 -396 -1 2 2 71 9 153 15 83 6 178 13 213 16 l62 6 0
229 0 229 -88 0 c-49 0 -108 6 -133 14 -24 8 -93 17 -154 20 -60 3 -124 8
-142 12 l-32 6 21 18 c19 15 23 30 25 105 3 68 0 96 -14 124 -9 20 -18 63 -20
96 -4 69 -22 135 -36 135 -6 0 -7 -80 -2 -223z m-657 -403 c12 -3 22 -12 22
-18 0 -17 36 -34 90 -41 25 -4 58 -13 74 -21 45 -22 71 -18 87 14 8 15 20 31
26 35 7 4 13 15 13 23 0 8 5 12 10 9 18 -11 10 -44 -17 -69 -24 -23 -25 -26
-9 -32 10 -4 40 -2 67 5 46 12 89 8 89 -8 0 -21 -131 -43 -237 -40 -126 3
-513 -10 -526 -18 -5 -3 -37 -2 -72 2 l-63 6 15 31 c10 19 14 46 10 74 -2 24
-2 42 2 40 3 -2 58 2 121 10 111 12 250 12 298 -2z m-487 -24 c27 0 26 -68 -1
-103 l-20 -25 -191 0 c-142 0 -200 4 -225 14 -47 20 -45 39 4 28 46 -10 113
-9 174 3 52 11 74 25 83 54 8 25 22 24 30 -1 9 -28 25 -25 25 4 0 21 5 25 38
29 20 2 43 2 50 0 8 -2 22 -3 33 -3z m1468 -324 c15 -18 -17 -20 -494 -34
-181 -6 -388 -15 -460 -21 -71 -5 -137 -10 -145 -9 -65 1 -269 -17 -262 -24 5
-5 115 -4 253 2 340 14 550 13 524 -2 -12 -8 -101 -15 -230 -20 -115 -4 -231
-10 -256 -12 -25 -2 -222 -8 -439 -12 -370 -7 -394 -6 -406 11 -9 12 -21 16
-39 13 -26 -5 -31 5 -19 37 12 30 58 37 299 41 132 2 368 9 525 16 157 6 399
12 538 13 139 1 256 5 259 9 4 3 82 6 173 6 133 0 170 -3 179 -14z m-710 -402
c24 -5 32 -3 27 5 -9 14 7 14 21 0 14 -14 52 -36 76 -45 30 -11 19 -18 -66
-42 -78 -21 -207 -31 -179 -14 9 6 -2 17 -36 35 -43 23 -95 67 -79 67 10 0
110 -27 132 -36 18 -7 18 -6 6 9 -8 10 -28 17 -50 17 -28 0 -33 3 -21 11 14
10 96 6 169 -7z m-531 -243 c13 -7 9 -10 -18 -15 -52 -8 -503 -16 -528 -9 -41
10 -22 23 36 24 31 0 77 4 102 8 59 10 387 4 408 -8z m-519 -222 c32 -14 58
-18 100 -14 l56 4 -45 -10 c-25 -5 -61 -8 -80 -5 l-35 5 29 -24 c16 -13 44
-26 63 -30 29 -5 33 -10 33 -35 l0 -30 -67 47 c-66 46 -69 47 -173 56 -135 12
-164 12 -227 0 -47 -9 -53 -8 -53 7 0 43 76 61 235 54 88 -4 132 -11 164 -25z
m545 -58 c15 -16 17 -32 12 -101 -7 -97 -16 -120 -37 -94 -9 11 -14 39 -13 81
1 51 -1 63 -12 59 -15 -6 -84 23 -84 35 0 35 106 51 134 20z m-651 -17 c47
-24 65 -43 72 -76 5 -23 11 -29 26 -25 13 4 19 0 19 -11 0 -24 -9 -34 -65 -73
-47 -32 -54 -34 -123 -32 -56 2 -79 7 -99 23 -19 15 -41 20 -87 20 -116 0
-144 23 -43 36 66 9 70 9 104 -1 33 -10 40 18 14 51 -28 35 -26 50 5 79 22 21
37 25 86 25 35 0 72 -7 91 -16z m467 -442 c28 -12 -2 -14 -185 -16 -49 -1
-216 -7 -370 -14 -154 -7 -341 -13 -416 -15 -124 -2 -134 -1 -115 13 16 11 67
17 206 23 102 4 230 10 285 15 146 10 565 6 595 -6z m-79 -314 c34 -18 74 -49
88 -67 26 -34 20 -34 -29 1 -46 32 -170 56 -210 39 -25 -10 -25 -10 7 -10 17
-1 35 -6 38 -12 4 -6 12 -8 19 -6 6 3 20 -1 31 -9 10 -8 31 -14 45 -14 39 0
84 -45 75 -73 -4 -12 -10 -57 -12 -100 -5 -74 -7 -78 -35 -93 -22 -11 -44 -13
-84 -8 -57 7 -64 2 -37 -28 18 -20 12 -22 -34 -9 -19 6 -35 5 -41 -1 -6 -6 -8
12 -5 56 4 46 2 66 -6 66 -12 0 -15 -39 -11 -155 1 -49 6 -73 18 -81 8 -6 12
-16 8 -22 -10 -16 42 -71 77 -80 24 -7 48 -3 97 15 84 30 92 29 54 -6 -52 -47
-157 -60 -208 -25 -10 7 -36 38 -57 70 -30 43 -39 67 -39 98 0 79 -4 83 -68
78 -31 -2 -61 -8 -66 -13 -14 -12 -13 -61 1 -91 7 -15 13 -36 13 -46 0 -11 7
-25 15 -32 13 -11 15 -5 15 44 0 48 3 56 19 56 14 0 20 -10 24 -41 4 -30 16
-52 43 -80 21 -21 36 -40 33 -42 -9 -9 -237 11 -257 22 -37 20 -26 34 22 29
24 -3 50 -2 56 2 17 11 3 67 -23 93 -18 18 -21 32 -20 72 2 27 -2 65 -8 83
-10 31 -12 32 -25 15 -7 -10 -14 -32 -14 -49 0 -18 -8 -38 -20 -49 -17 -16
-25 -16 -85 -4 -45 9 -69 10 -73 3 -4 -6 -22 -18 -40 -27 l-33 -16 -18 42
c-10 23 -22 53 -26 67 -15 50 -106 110 -124 82 -3 -6 -19 -15 -34 -21 -15 -6
-32 -23 -38 -38 -10 -26 -12 -27 -19 -8 -8 19 -8 19 -17 -4 -10 -25 -10 -25
-16 7 -3 17 -22 64 -40 104 -19 40 -37 81 -41 91 -3 9 -13 17 -22 17 -13 0
-15 -9 -12 -50 1 -28 -1 -50 -6 -50 -6 0 -3 -6 6 -12 25 -20 26 -40 7 -85 -10
-22 -15 -44 -11 -47 3 -3 -7 -19 -23 -36 -21 -22 -32 -27 -45 -20 -14 8 -16
16 -11 42 4 18 14 43 21 55 12 19 12 24 -1 40 -9 10 -19 25 -22 34 -3 9 -20
19 -39 23 -26 5 -30 9 -18 16 8 5 26 10 39 10 36 0 51 27 44 80 -3 25 -10 51
-16 58 -5 7 -8 14 -6 16 9 9 342 27 559 31 129 2 273 9 320 15 136 16 142 17
217 19 63 1 79 -3 134 -31z m1282 9 c66 1 76 -1 66 -13 -7 -8 -32 -19 -56 -26
-31 -7 -41 -13 -31 -19 25 -16 63 -9 87 16 24 26 41 32 41 15 0 -5 -4 -10 -9
-10 -13 0 -20 -35 -10 -52 13 -23 -113 -2 -174 28 -43 22 -58 25 -111 19 -33
-3 -70 -9 -81 -12 -15 -3 -13 1 10 21 37 31 97 47 150 38 22 -3 75 -6 118 -5z
m-1032 -66 c48 -32 45 -23 41 -153 -2 -44 -20 -78 -43 -78 -5 0 -26 16 -47 35
-35 33 -36 34 -13 35 23 0 23 1 8 18 -13 14 -17 38 -17 95 0 89 4 92 71 48z
m535 -42 c60 -27 76 -31 129 -26 57 5 58 5 30 -8 -16 -8 -36 -14 -42 -15 -7 0
-13 -4 -13 -10 0 -5 -9 -10 -21 -10 -16 0 -19 -4 -14 -20 4 -11 2 -20 -4 -20
-6 0 -11 7 -11 15 0 31 -111 78 -125 54 -4 -5 -1 -9 4 -9 19 0 12 -17 -21 -49
l-32 -31 27 0 c15 0 38 7 50 15 25 16 31 13 67 -29 22 -26 23 -28 5 -22 -44
17 -47 16 -142 -25 -24 -11 -43 -24 -43 -29 0 -6 -4 -10 -10 -10 -5 0 -10 13
-10 29 0 20 -9 36 -26 50 -24 19 -24 26 0 22 12 -3 56 40 56 54 0 6 14 24 31
40 l32 28 -23 12 c-17 9 -19 14 -9 18 27 11 47 7 115 -24z m-1620 -280 c18
-11 43 -36 55 -56 20 -32 25 -35 59 -29 33 5 38 3 49 -21 13 -29 3 -43 -31
-43 -10 0 -18 -5 -18 -11 0 -7 -11 -9 -30 -5 -28 5 -30 3 -30 -24 0 -47 -17
-35 -23 16 -2 26 -9 49 -15 53 -5 3 -19 25 -31 49 -16 32 -29 44 -51 49 -33 6
-36 13 -18 31 18 18 46 15 84 -9z m2129 -111 c13 -39 14 -60 7 -79 -10 -25
-15 -26 -109 -33 -54 -4 -168 -9 -253 -11 -85 -2 -265 -8 -400 -13 -135 -5
-247 -8 -248 -6 -2 1 11 10 28 19 27 14 57 16 174 13 l141 -3 -17 33 c-9 19
-14 41 -11 49 5 12 13 7 39 -21 l33 -36 88 1 c138 1 189 11 223 44 17 16 30
24 30 17 0 -28 61 -44 154 -40 l91 3 -3 44 c-3 43 2 71 12 71 3 0 12 -24 21
-52z"/>
<path d="M7174 3159 c-67 -35 -131 -85 -121 -95 4 -4 19 -2 34 5 16 7 85 14
166 16 115 3 149 0 198 -15 32 -11 75 -22 96 -25 37 -6 37 -6 18 10 -38 32
-287 135 -325 135 -4 0 -34 -14 -66 -31z"/>
<path d="M7890 2353 c-25 -33 -56 -58 -108 -86 -42 -22 -84 -54 -100 -75 -48
-63 -98 -92 -157 -92 -29 0 -72 7 -95 15 -23 8 -63 15 -89 15 -66 0 -211 22
-211 32 0 8 12 10 100 13 131 6 374 25 379 31 11 11 -43 42 -84 49 -116 18
-144 17 -222 -8 -195 -61 -470 -117 -658 -132 -83 -7 -85 -8 -195 -47 -94 -34
-204 -95 -240 -133 -35 -37 -11 -31 103 25 136 66 241 97 362 109 55 5 138 18
185 27 141 29 459 17 579 -22 60 -19 158 -15 195 9 12 8 46 22 74 31 68 20
104 41 128 77 10 16 24 29 30 29 18 0 66 113 62 148 l-3 32 -35 -47z"/>
<path d="M2995 2261 c-6 -6 -988 -22 -1545 -25 -239 -2 -538 -8 -665 -14 -126
-6 -321 -14 -433 -17 -111 -4 -235 -11 -275 -15 -97 -12 526 -2 708 11 77 5
241 9 365 9 603 0 1510 11 1635 21 77 6 224 10 328 8 103 -2 187 -1 187 3 0 4
-10 10 -22 12 -32 7 -278 13 -283 7z"/>
<path d="M2805 1380 c-258 -3 -476 -9 -483 -13 -6 -5 -495 -10 -1085 -13 -589
-2 -1109 -6 -1154 -10 -68 -5 -83 -9 -83 -22 0 -16 33 -17 403 -14 221 2 737
5 1146 7 434 2 796 8 870 15 84 7 152 8 201 2 41 -5 111 -6 155 -3 84 8 455 4
464 -4 2 -3 -3 -58 -12 -122 -10 -65 -17 -134 -17 -153 0 -29 -8 -44 -42 -77
-67 -65 -188 -150 -248 -175 -99 -40 -191 -97 -264 -161 -88 -78 -108 -92
-226 -154 -52 -28 -160 -86 -240 -128 -80 -43 -253 -130 -385 -195 -132 -64
-249 -126 -259 -138 l-19 -22 701 0 702 0 0 23 c0 12 -4 37 -10 56 -5 19 -10
106 -11 195 -1 148 1 167 24 234 34 98 107 211 194 303 98 102 117 148 133
314 7 72 15 156 19 187 4 32 5 61 2 65 -3 4 -217 6 -476 3z"/>
<path d="M1830 769 c0 -388 3 -490 13 -486 19 6 20 977 1 977 -12 0 -14 -82
-14 -491z"/>
<path d="M7154 897 c-27 -24 -82 -67 -121 -96 -40 -29 -73 -56 -73 -60 0 -18
-74 -79 -134 -111 -42 -22 -65 -40 -63 -49 3 -19 -90 -58 -172 -73 -132 -24
-165 -27 -346 -27 -188 0 -236 4 -410 33 -158 27 -188 34 -405 86 -47 12 -103
23 -125 26 -36 6 -38 5 -20 -8 54 -38 438 -138 531 -138 17 0 51 -7 75 -15
113 -40 374 -40 709 0 69 9 149 15 178 15 28 0 52 5 52 10 0 6 -12 10 -27 10
-49 0 -56 15 -15 29 61 21 185 81 217 105 17 12 60 39 98 60 37 20 67 38 67
40 0 7 -148 -50 -172 -66 -28 -19 -78 -34 -78 -24 0 9 79 79 109 96 67 37 101
61 97 69 -3 4 19 32 49 61 30 30 55 58 55 62 0 19 -32 5 -76 -35z"/>
<path d="M7560 858 c-17 -18 -41 -51 -52 -73 -28 -54 -131 -152 -209 -198 -35
-21 -109 -51 -164 -68 -55 -17 -114 -40 -131 -50 -18 -11 -60 -59 -95 -107
-35 -48 -114 -139 -175 -203 -62 -64 -117 -126 -123 -138 l-12 -21 1397 0
c1347 0 1397 1 1381 18 -9 10 -43 30 -74 44 -240 109 -375 174 -553 266 -385
199 -636 321 -772 376 -154 62 -274 120 -332 159 -21 15 -42 27 -46 27 -4 0
-22 -15 -40 -32z"/>
<path d="M5719 417 c-37 -13 -95 -40 -129 -61 -58 -36 -85 -42 -63 -14 5 7 13
21 16 31 11 29 -28 3 -128 -87 -49 -45 -108 -92 -130 -106 -30 -19 -36 -26
-22 -28 17 -4 273 120 354 171 44 28 195 97 212 97 6 0 11 5 11 10 0 16 -51
11 -121 -13z"/>
</g>
</svg>
